<svg width="2250" height="320" viewBox="0 0 2250 320" fill="none" xmlns="http://www.w3.org/2000/svg">
<rect x="46.4729" y="266.63" width="392" height="62" rx="31" transform="rotate(-36.9485 46.4729 266.63)" fill="url(#paint0_linear_308_37)"/>
<rect x="244.403" y="215.358" width="100" height="62" rx="31" transform="rotate(-36.9485 244.403 215.358)" fill="url(#paint1_linear_308_37)"/>
<rect x="82.2527" y="143.177" width="100" height="62" rx="31" transform="rotate(-36.9485 82.2527 143.177)" fill="url(#paint2_linear_308_37)"/>
<path d="M617.625 115.75C616.458 117.417 615.292 118.667 614.125 119.5C613.042 120.25 611.667 120.625 610 120.625C608.333 120.625 606.625 119.958 604.875 118.625C603.125 117.292 601.042 115.833 598.625 114.25C596.208 112.583 593.333 111.083 590 109.75C586.667 108.417 582.667 107.75 578 107.75C573.5 107.75 569.5 108.417 566 109.75C562.5 111.083 559.542 112.917 557.125 115.25C554.792 117.583 553 120.333 551.75 123.5C550.583 126.667 550 130.083 550 133.75C550 137.583 550.958 140.792 552.875 143.375C554.875 145.875 557.458 148.083 560.625 150C563.792 151.917 567.417 153.625 571.5 155.125C575.583 156.625 579.708 158.208 583.875 159.875C588.125 161.542 592.292 163.458 596.375 165.625C600.458 167.792 604.083 170.458 607.25 173.625C610.417 176.792 612.958 180.625 614.875 185.125C616.875 189.542 617.875 194.917 617.875 201.25C617.875 210.083 616.333 218.417 613.25 226.25C610.167 234.083 605.792 240.958 600.125 246.875C594.458 252.708 587.542 257.375 579.375 260.875C571.208 264.292 562.083 266 552 266C546.75 266 541.583 265.417 536.5 264.25C531.417 263.167 526.625 261.583 522.125 259.5C517.625 257.417 513.458 254.917 509.625 252C505.792 249.083 502.458 245.833 499.625 242.25L511.125 226.75C512.042 225.583 513.208 224.625 514.625 223.875C516.042 223.125 517.458 222.75 518.875 222.75C520.208 222.75 521.5 223.167 522.75 224C524.083 224.833 525.5 225.875 527 227.125C528.583 228.292 530.25 229.625 532 231.125C533.833 232.542 535.875 233.875 538.125 235.125C540.458 236.292 543.083 237.292 546 238.125C549 238.958 552.375 239.375 556.125 239.375C565.625 239.375 573.042 236.708 578.375 231.375C583.708 226.042 586.375 218.667 586.375 209.25C586.375 205.083 585.417 201.667 583.5 199C581.583 196.333 579.042 194.083 575.875 192.25C572.708 190.417 569.083 188.833 565 187.5C561 186.083 556.917 184.625 552.75 183.125C548.583 181.542 544.458 179.75 540.375 177.75C536.375 175.667 532.792 173.042 529.625 169.875C526.458 166.625 523.917 162.667 522 158C520.083 153.333 519.125 147.583 519.125 140.75C519.125 133 520.542 125.542 523.375 118.375C526.292 111.208 530.417 104.917 535.75 99.5C541.167 94 547.667 89.625 555.25 86.375C562.917 83.0417 571.542 81.375 581.125 81.375C586.042 81.375 590.75 81.875 595.25 82.875C599.833 83.875 604.083 85.2917 608 87.125C611.917 88.9583 615.5 91.1667 618.75 93.75C622.083 96.25 624.958 99.0417 627.375 102.125L617.625 115.75ZM773.656 109.875H724.281L705.281 264H673.031L691.781 109.875H642.156L645.406 83.25H777.031L773.656 109.875ZM840.191 169.625C846.691 169.625 852.275 168.708 856.941 166.875C861.691 164.958 865.608 162.375 868.691 159.125C871.775 155.792 874.066 151.917 875.566 147.5C877.066 143.083 877.816 138.333 877.816 133.25C877.816 125.417 875.358 119.292 870.441 114.875C865.608 110.458 858.15 108.25 848.066 108.25H829.066L821.566 169.625H840.191ZM851.066 83.25C861.483 83.25 870.4 84.375 877.816 86.625C885.316 88.7917 891.441 91.875 896.191 95.875C900.941 99.7917 904.441 104.5 906.691 110C908.941 115.5 910.066 121.542 910.066 128.125C910.066 135.042 909.066 141.583 907.066 147.75C905.15 153.917 902.358 159.5 898.691 164.5C895.025 169.5 890.525 173.875 885.191 177.625C879.858 181.375 873.816 184.292 867.066 186.375C868.983 187.542 870.691 188.958 872.191 190.625C873.775 192.292 875.15 194.292 876.316 196.625L908.566 264H879.441C873.858 264 870.15 261.833 868.316 257.5L841.816 198.875C840.816 196.708 839.566 195.167 838.066 194.25C836.65 193.25 834.4 192.75 831.316 192.75H818.691L809.941 264H777.691L799.691 83.25H851.066ZM979.344 109.125L972.969 160.5H1030.09L1026.97 185.375H969.844L963.344 238.125H1036.34L1033.09 264H927.594L949.844 83.25H1055.22L1051.97 109.125H979.344ZM1158.5 196L1146.25 134.125C1145.75 131.292 1145.17 128 1144.5 124.25C1143.84 120.5 1143.17 116.417 1142.5 112C1140.84 116.417 1139.21 120.5 1137.63 124.25C1136.04 128 1134.63 131.333 1133.38 134.25L1106 196H1158.5ZM1205.63 264H1180.5C1177.67 264 1175.46 263.333 1173.88 262C1172.38 260.583 1171.29 258.792 1170.63 256.625L1163.13 218.875H1095.75L1079 256.625C1078.09 258.542 1076.59 260.25 1074.5 261.75C1072.5 263.25 1070.17 264 1067.5 264H1042L1129.38 83.25H1162.5L1205.63 264ZM1428.22 83.25L1405.97 264H1377.47L1391.97 146.25C1392.31 144.083 1392.68 141.75 1393.1 139.25C1393.6 136.75 1394.14 134.167 1394.72 131.5L1332.6 234.5C1331.18 236.833 1329.39 238.583 1327.22 239.75C1325.14 240.917 1322.85 241.5 1320.35 241.5H1315.85C1313.35 241.5 1311.14 240.917 1309.22 239.75C1307.39 238.583 1306.06 236.833 1305.22 234.5L1267.97 131.5C1267.89 134.083 1267.77 136.583 1267.6 139C1267.52 141.417 1267.35 143.667 1267.1 145.75L1252.85 264H1224.22L1246.47 83.25H1270.85C1272.27 83.25 1273.43 83.3333 1274.35 83.5C1275.35 83.5833 1276.22 83.8333 1276.97 84.25C1277.72 84.5833 1278.43 85.125 1279.1 85.875C1279.77 86.5417 1280.47 87.4167 1281.22 88.5L1318.6 191.75C1320.1 196.167 1321.35 200.667 1322.35 205.25C1323.43 202.917 1324.52 200.625 1325.6 198.375C1326.77 196.125 1328.02 193.917 1329.35 191.75L1392.1 88.5C1393.1 87.4167 1393.97 86.5417 1394.72 85.875C1395.56 85.125 1396.39 84.5833 1397.22 84.25C1398.06 83.8333 1398.97 83.5833 1399.97 83.5C1400.97 83.3333 1402.18 83.25 1403.6 83.25H1428.22ZM1495.7 109.125L1488.83 164.125H1550.33L1546.83 190H1485.7L1476.58 264H1443.95L1466.2 83.25H1571.58L1568.33 109.125H1495.7ZM1747.05 161.5C1747.05 171.5 1745.93 181.042 1743.68 190.125C1741.51 199.125 1738.39 207.5 1734.3 215.25C1730.22 223 1725.26 230 1719.43 236.25C1713.6 242.5 1707.05 247.833 1699.8 252.25C1692.64 256.667 1684.85 260.083 1676.43 262.5C1668.01 264.833 1659.18 266 1649.93 266C1638.43 266 1628.1 263.958 1618.93 259.875C1609.76 255.792 1601.93 250.167 1595.43 243C1589.01 235.833 1584.1 227.375 1580.68 217.625C1577.26 207.875 1575.55 197.292 1575.55 185.875C1575.55 175.875 1576.64 166.375 1578.8 157.375C1581.05 148.292 1584.22 139.875 1588.3 132.125C1592.47 124.375 1597.43 117.375 1603.18 111.125C1609.01 104.875 1615.51 99.5417 1622.68 95.125C1629.93 90.625 1637.76 87.2083 1646.18 84.875C1654.6 82.4583 1663.47 81.25 1672.8 81.25C1684.3 81.25 1694.64 83.2917 1703.8 87.375C1712.97 91.4583 1720.76 97.0833 1727.18 104.25C1733.6 111.417 1738.51 119.917 1741.93 129.75C1745.35 139.5 1747.05 150.083 1747.05 161.5ZM1713.8 162.25C1713.8 154.083 1712.76 146.667 1710.68 140C1708.68 133.333 1705.72 127.625 1701.8 122.875C1697.97 118.125 1693.26 114.458 1687.68 111.875C1682.1 109.292 1675.8 108 1668.8 108C1659.8 108 1651.6 109.833 1644.18 113.5C1636.85 117.167 1630.55 122.375 1625.3 129.125C1620.05 135.875 1615.97 144 1613.05 153.5C1610.22 163 1608.8 173.542 1608.8 185.125C1608.8 193.292 1609.8 200.708 1611.8 207.375C1613.8 214.042 1616.72 219.75 1620.55 224.5C1624.39 229.167 1629.05 232.792 1634.55 235.375C1640.14 237.875 1646.47 239.125 1653.55 239.125C1662.64 239.125 1670.89 237.292 1678.3 233.625C1685.72 229.958 1692.05 224.792 1697.3 218.125C1702.55 211.458 1706.6 203.417 1709.43 194C1712.35 184.5 1713.8 173.917 1713.8 162.25ZM1825.79 169.625C1832.29 169.625 1837.87 168.708 1842.54 166.875C1847.29 164.958 1851.2 162.375 1854.29 159.125C1857.37 155.792 1859.66 151.917 1861.16 147.5C1862.66 143.083 1863.41 138.333 1863.41 133.25C1863.41 125.417 1860.95 119.292 1856.04 114.875C1851.2 110.458 1843.75 108.25 1833.66 108.25H1814.66L1807.16 169.625H1825.79ZM1836.66 83.25C1847.08 83.25 1856 84.375 1863.41 86.625C1870.91 88.7917 1877.04 91.875 1881.79 95.875C1886.54 99.7917 1890.04 104.5 1892.29 110C1894.54 115.5 1895.66 121.542 1895.66 128.125C1895.66 135.042 1894.66 141.583 1892.66 147.75C1890.75 153.917 1887.95 159.5 1884.29 164.5C1880.62 169.5 1876.12 173.875 1870.79 177.625C1865.45 181.375 1859.41 184.292 1852.66 186.375C1854.58 187.542 1856.29 188.958 1857.79 190.625C1859.37 192.292 1860.75 194.292 1861.91 196.625L1894.16 264H1865.04C1859.45 264 1855.75 261.833 1853.91 257.5L1827.41 198.875C1826.41 196.708 1825.16 195.167 1823.66 194.25C1822.25 193.25 1820 192.75 1816.91 192.75H1804.29L1795.54 264H1763.29L1785.29 83.25H1836.66ZM2003.5 173.875H2059.75L2050.75 246.5C2041.58 253.167 2031.71 258.083 2021.12 261.25C2010.54 264.417 1998.46 266 1984.87 266C1973.79 266 1963.71 264 1954.62 260C1945.62 256 1937.87 250.458 1931.37 243.375C1924.96 236.208 1920 227.75 1916.5 218C1913 208.167 1911.25 197.458 1911.25 185.875C1911.25 175.708 1912.37 166.083 1914.62 157C1916.87 147.833 1920.04 139.375 1924.12 131.625C1928.29 123.875 1933.29 116.917 1939.12 110.75C1944.96 104.5 1951.46 99.2083 1958.62 94.875C1965.79 90.4583 1973.54 87.0833 1981.87 84.75C1990.29 82.4167 1999.08 81.25 2008.25 81.25C2015.58 81.25 2022.21 81.9167 2028.12 83.25C2034.12 84.5 2039.54 86.25 2044.37 88.5C2049.21 90.75 2053.54 93.375 2057.37 96.375C2061.21 99.375 2064.62 102.542 2067.62 105.875L2057.12 119.375C2055.46 121.708 2053.41 123.167 2051 123.75C2048.58 124.25 2046.12 123.667 2043.62 122C2041.21 120.417 2038.79 118.875 2036.37 117.375C2033.96 115.792 2031.29 114.375 2028.37 113.125C2025.54 111.875 2022.29 110.875 2018.62 110.125C2014.96 109.375 2010.66 109 2005.75 109C1996.75 109 1988.5 110.833 1981 114.5C1973.5 118.083 1967.04 123.208 1961.62 129.875C1956.21 136.458 1952 144.417 1949 153.75C1946 163 1944.5 173.333 1944.5 184.75C1944.5 193.417 1945.58 201.167 1947.75 208C1950 214.833 1953.12 220.625 1957.12 225.375C1961.12 230.125 1965.91 233.792 1971.5 236.375C1977.16 238.875 1983.46 240.125 1990.37 240.125C1997.21 240.125 2003.21 239.5 2008.37 238.25C2013.54 236.917 2018.5 235.042 2023.25 232.625L2027.37 198.25H2007.37C2005.29 198.25 2003.71 197.708 2002.62 196.625C2001.62 195.458 2001.21 194.042 2001.37 192.375L2003.5 173.875ZM2131.93 109.125L2125.56 160.5H2182.68L2179.56 185.375H2122.43L2115.93 238.125H2188.93L2185.68 264H2080.18L2102.43 83.25H2207.81L2204.56 109.125H2131.93Z" fill="white"/>
<defs>
<linearGradient id="paint0_linear_308_37" x1="142.198" y1="319.077" x2="318.612" y2="309.119" gradientUnits="userSpaceOnUse">
<stop stop-color="#165664"/>
<stop offset="1" stop-color="#1C945A"/>
</linearGradient>
<linearGradient id="paint1_linear_308_37" x1="294.403" y1="215.358" x2="294.403" y2="277.358" gradientUnits="userSpaceOnUse">
<stop stop-color="#1C935A"/>
<stop offset="1" stop-color="#1C935A" stop-opacity="0.14"/>
</linearGradient>
<linearGradient id="paint2_linear_308_37" x1="132.253" y1="143.177" x2="132.253" y2="205.177" gradientUnits="userSpaceOnUse">
<stop stop-color="#165664" stop-opacity="0.03"/>
<stop offset="1" stop-color="#165664"/>
</linearGradient>
</defs>
</svg>
